<?xml version="1.0" encoding="utf-8"?>
<svg viewBox="0 0 500 500" xmlns="http://www.w3.org/2000/svg">
  <g transform="matrix(1.0489989519119263, 0, 0, 1, -26.051944732666016, 29.04149627685547)">
    <rect style="fill: #5c5248ff;" x="70.214" y="79.299" width="385.888" height="250.563" rx="10" ry="10" />
    <path style="fill: #5c5248ff;"
      d="M 55.817 339.052 H 470.498 V 355.218 A 7.4 7.4 0 0 1 463.098 362.618 H 63.217 A 7.4 7.4 0 0 1 55.817 355.218 V 339.052 Z" />
    <g style="" transform="matrix(1.276535, 0.790712, -0.718571, 1.276535, 160.876465, -243.798175)">
      <rect x="137.341" y="212.912" width="160.712" height="26.501" style="fill: rgb(255, 255, 255);" />
      <g style="" transform="matrix(1.868383, 0, 0, 1, -250.709808, 0)">
        <g style="" transform="matrix(1.101485, 0.000072, -0.004712, 0.999989, -63.670532, -0.023199)">
          <rect x="233.827" y="149.001" width="18.612" height="18.613" style="fill: #5c5248ff;"
            transform="matrix(0.707107, 0.707107, -0.707107, 0.707107, 265.564639, -70.996653)" />
          <rect x="233.827" y="149.001" width="18.612" height="18.613" style="fill: #5c5248ff;"
            transform="matrix(0.707107, 0.707107, -0.707107, 0.707107, 265.558587, -44.538746)" />
        </g>
      </g>
      <rect x="123.559" y="212.922" width="25.262" height="26.501" style="fill: rgb(255, 255, 255);" rx="12.631"
        ry="12.631" />
    </g>
  </g>
</svg>