<?xml version="1.0" encoding="utf-8"?>
<svg viewBox="0 0 500 190" xmlns="http://www.w3.org/2000/svg">
  <path d="M 35.906 185.652 C 38.084 185.107 39.9 183.655 41.352 182.022 C 43.529 179.3 44.617 175.67 45.524 172.222 C 49.335 157.341 49.154 88.382 48.792 73.137 C 48.792 72.593 48.974 70.052 48.792 69.508 C 48.248 67.511 46.795 65.516 45.163 64.245 C 42.985 62.431 39.537 63.157 40.262 65.879 C 39.537 68.056 39.354 70.416 38.991 72.593 C 35.362 68.964 27.014 62.794 22.115 64.245 C 19.03 65.153 17.215 68.237 15.582 70.778 C 9.775 80.215 5.237 91.285 5.056 102.536 C 4.875 112.699 10.682 124.313 20.844 125.039 C 24.292 125.221 27.922 123.768 30.643 121.591 C 34.818 118.325 37.723 113.787 39.718 108.888 C 39.537 123.406 39.354 137.742 38.447 152.079 C 38.084 157.705 37.54 163.33 36.27 168.775 C 35.362 171.86 33.729 175.126 30.826 176.759 C 27.922 178.574 23.203 177.848 21.026 175.308 C 18.304 172.222 17.034 167.866 15.944 163.874 C 15.944 163.33 15.22 160.063 15.038 159.52 C 13.04 155.164 5.6 152.623 5.963 157.341 C 5.963 157.705 6.144 159.156 6.327 159.52 C 7.778 165.689 9.956 172.041 13.767 176.941 C 16.852 181.115 21.389 184.2 26.289 185.652 C 29.374 186.559 32.822 186.74 35.906 185.652 Z M 16.852 116.691 C 15.944 116.147 15.22 113.787 15.038 112.699 C 13.949 108.707 14.13 104.169 14.856 99.997 C 15.944 94.551 17.759 89.107 20.118 84.026 C 21.752 80.396 23.566 76.585 26.108 73.319 C 26.47 72.775 27.559 71.685 28.285 71.868 C 29.737 72.049 33.548 75.133 34.636 76.223 C 36.089 77.856 37.723 80.215 37.359 82.393 C 35.906 89.47 34.274 96.367 31.551 102.899 C 29.556 107.618 26.47 112.517 21.934 115.239 C 20.844 115.965 18.122 117.235 16.852 116.691 Z M 67.841 125.765 C 68.385 125.039 68.566 122.68 68.566 121.954 C 68.748 114.333 68.203 106.71 69.111 99.27 C 69.836 92.374 71.47 84.934 75.281 79.126 C 76.552 77.312 78.185 75.497 80 74.227 C 83.629 71.868 88.71 70.959 90.344 74.77 C 92.158 78.945 99.054 81.304 98.873 76.767 C 98.691 74.046 96.513 71.504 94.336 69.508 C 91.069 66.787 86.896 64.245 82.721 64.245 C 79.818 64.245 76.732 65.153 74.373 66.787 C 71.107 68.601 68.748 71.685 66.932 74.952 C 66.751 74.046 66.207 69.871 65.844 68.964 C 65.118 67.511 63.666 66.241 62.032 65.516 C 60.763 64.972 59.129 65.153 58.584 66.423 C 58.041 67.693 58.403 69.145 58.403 70.597 C 58.584 71.868 58.767 80.033 58.767 81.486 C 59.129 93.644 59.129 105.803 58.948 117.962 C 58.767 119.595 58.948 121.229 59.674 122.68 C 61.308 125.946 65.481 128.487 67.841 125.765 Z M 127.541 121.773 C 129.901 120.32 131.896 117.962 133.349 115.603 C 136.252 111.066 137.886 105.803 139.156 100.721 C 139.338 102.174 139.7 109.977 139.882 111.428 C 140.245 113.606 140.607 115.784 141.697 117.599 C 142.786 119.595 144.964 121.41 147.141 122.136 C 148.23 122.497 149.5 122.68 150.407 121.954 C 152.404 120.683 150.951 118.143 149.319 116.328 C 148.049 105.622 147.867 94.551 147.503 83.663 C 147.322 81.667 147.322 72.049 146.959 70.235 C 146.415 68.056 144.964 66.06 143.148 64.789 C 141.697 63.519 139.156 62.975 138.43 64.789 C 138.068 65.334 137.159 65.334 136.615 65.879 C 136.252 66.241 136.434 67.511 136.071 66.967 C 134.438 64.608 131.715 62.612 128.994 61.705 C 126.09 60.978 122.642 61.524 120.101 63.157 C 117.016 64.972 114.475 67.874 112.479 70.959 C 107.035 79.671 104.132 90.74 105.22 100.903 C 105.946 107.98 107.943 115.965 113.387 120.32 C 115.565 121.954 118.287 123.406 121.008 123.587 C 123.186 123.587 125.546 123.043 127.541 121.773 Z M 114.839 104.713 C 113.931 95.278 116.29 85.297 121.19 77.312 C 123.005 74.589 124.819 72.049 127.361 70.235 C 128.267 69.689 129.175 69.327 130.264 69.327 C 131.533 70.959 132.26 73.319 132.26 75.497 C 132.078 76.767 132.986 78.037 133.894 78.762 C 132.442 86.204 131.171 93.462 128.812 100.54 C 127.18 105.622 122.642 114.333 117.379 114.877 C 115.746 111.791 115.202 108.161 114.839 104.713 Z M 185.8 125.765 C 191.609 123.043 196.326 118.143 200.319 113.062 C 201.589 111.428 202.316 109.069 201.589 107.074 C 199.955 102.355 193.241 99.27 192.153 104.169 C 191.609 106.347 186.89 111.428 185.256 112.88 C 182.898 115.057 177.816 118.506 174.912 117.418 C 173.28 116.873 172.372 115.057 171.646 113.606 C 169.832 109.977 169.106 105.803 168.924 101.811 C 168.561 93.462 170.193 84.026 175.82 77.675 C 177.816 75.314 180.357 72.956 183.261 72.049 C 184.894 74.227 186.527 76.948 185.982 79.671 C 185.8 81.667 188.161 84.026 190.157 84.934 C 190.882 85.297 192.153 85.477 193.059 84.934 C 194.693 83.844 194.512 80.396 193.786 78.4 C 191.79 71.141 185.619 62.612 177.997 63.882 C 175.457 64.245 173.098 65.697 171.101 67.33 C 166.745 70.597 163.661 75.497 161.665 80.578 C 159.849 85.477 159.124 90.74 158.943 95.822 C 158.762 102.536 160.031 109.614 163.479 115.239 C 168.016 122.861 177.816 129.394 185.8 125.765 Z M 233.159 127.943 C 236.245 127.579 239.148 126.129 242.052 124.495 C 243.866 123.406 250.581 118.325 252.033 116.691 C 252.396 116.147 252.577 115.42 252.577 114.696 C 252.396 112.155 249.312 109.432 246.77 108.707 C 246.226 108.707 245.319 108.524 244.774 108.888 C 244.23 109.069 243.866 109.432 243.322 109.795 C 242.778 110.34 239.511 113.062 238.785 113.425 C 235.7 115.603 232.252 117.962 228.442 118.506 C 226.99 118.868 225.175 118.868 223.904 117.962 C 222.634 116.873 221.727 115.42 221 113.97 C 218.642 109.069 218.098 103.262 218.823 97.999 C 221.546 97.999 238.06 96.729 240.963 96.548 C 242.233 96.367 248.948 96.185 250.218 95.822 C 252.76 94.915 251.307 91.648 249.312 89.833 C 249.129 85.658 248.404 81.123 246.226 77.494 C 243.866 73.5 240.055 70.416 235.7 68.601 C 232.978 67.511 230.075 67.149 227.172 67.511 C 223.724 68.237 220.275 70.235 217.734 72.956 C 213.923 76.767 211.383 82.029 209.931 87.292 C 207.572 95.096 207.754 103.807 210.656 111.248 C 212.472 115.784 215.194 119.958 218.823 123.224 C 222.634 126.491 228.078 128.669 233.159 127.943 Z M 223.904 82.029 C 227.353 76.767 233.886 72.775 238.423 77.131 C 239.511 78.218 240.055 79.852 240.418 81.486 C 240.963 83.663 241.145 86.022 241.508 88.2 C 234.43 88.745 227.533 89.288 220.456 89.833 C 221.364 87.111 222.453 84.389 223.904 82.029 Z M 359.106 121.954 C 360.377 95.278 360.74 68.601 362.372 41.923 C 362.735 37.568 364.369 13.432 364.188 8.895 C 364.006 6.536 361.102 3.27 359.106 2.363 C 357.654 1.636 355.658 2 355.476 3.451 C 354.208 11.617 352.028 58.62 351.303 66.787 C 351.303 67.511 350.577 72.049 350.577 72.775 C 347.311 68.964 342.23 66.241 337.33 66.241 C 331.886 66.423 326.623 69.871 322.993 73.864 C 319.727 77.494 317.912 82.21 316.823 86.929 C 313.738 101.265 316.46 119.776 330.615 123.587 C 334.244 124.495 337.874 123.768 340.959 121.591 C 344.225 119.049 346.766 115.42 348.762 111.791 C 348.762 112.88 348.399 117.235 348.762 118.143 C 349.489 121.047 352.21 123.406 355.114 124.131 C 356.929 124.495 358.924 123.768 359.106 121.954 Z M 328.981 115.42 C 328.257 115.239 327.53 113.606 327.167 113.062 C 324.627 105.984 324.99 97.999 326.441 90.74 C 327.53 85.477 330.615 80.396 334.789 77.131 C 336.967 75.497 341.503 73.137 343.863 74.407 C 345.496 75.133 346.404 76.948 346.948 78.581 C 344.951 79.852 346.585 82.574 348.399 84.026 C 346.766 90.559 344.588 97.092 341.866 103.262 C 340.051 107.074 337.692 111.066 334.244 113.606 C 332.792 114.696 330.796 115.784 328.981 115.42 Z M 383.608 127.761 C 384.334 126.672 383.972 125.221 383.972 123.95 C 384.153 122.861 383.245 121.591 382.519 120.866 C 381.431 119.413 378.89 118.143 377.438 118.868 C 376.53 119.413 375.442 121.41 375.26 122.317 C 375.078 123.768 376.53 126.491 377.8 127.398 C 379.615 129.032 382.519 129.758 383.608 127.761 Z M 457.47 41.198 C 457.651 40.836 457.832 39.383 457.832 39.202 C 457.47 33.757 448.214 30.491 448.576 35.935 C 448.758 37.568 449.484 39.383 450.574 40.654 C 452.751 42.831 457.106 44.102 457.47 41.198 Z M 455.837 122.317 C 456.199 121.41 455.655 120.32 456.017 119.413 C 456.199 118.868 456.199 118.506 456.199 117.962 C 455.837 103.262 454.929 88.563 456.38 74.046 C 456.38 72.956 456.199 72.049 456.199 70.959 C 455.837 68.42 453.84 66.06 451.299 65.516 C 450.392 65.153 449.303 65.334 448.758 66.06 C 448.214 66.604 448.214 67.511 448.033 68.237 C 446.762 72.593 446.762 92.192 446.762 96.729 C 446.762 99.997 446.762 115.42 447.67 118.688 C 448.214 121.047 451.299 123.587 453.84 123.587 C 454.566 123.587 455.473 123.043 455.837 122.317 Z M 493.401 117.418 C 497.393 111.428 493.039 103.445 487.413 99.088 C 485.779 97.636 477.976 92.374 476.706 90.559 C 474.165 86.748 474.708 77.675 476.706 73.683 C 477.25 72.593 478.52 71.322 479.427 71.504 C 480.335 71.685 481.605 73.137 482.15 73.683 C 482.331 74.046 482.694 74.407 482.512 74.589 C 482.15 76.948 485.053 79.308 487.231 80.215 C 489.408 81.123 491.405 79.671 490.861 77.312 C 489.953 73.5 487.049 70.235 483.965 67.511 C 480.517 64.608 474.527 62.431 471.079 65.334 C 465.635 69.689 465.454 81.486 467.812 88.019 C 469.083 91.648 471.806 94.915 474.708 97.455 C 477.613 99.997 481.061 101.811 484.146 104.351 C 486.142 105.984 486.686 109.069 485.053 111.066 C 484.509 111.791 483.783 112.336 483.057 112.699 C 479.971 114.514 476.342 115.42 472.713 115.603 C 471.443 114.877 469.629 113.97 468.176 114.514 C 466.544 115.057 466.362 116.873 466.906 118.325 C 468.358 121.41 471.806 123.587 475.072 124.313 C 480.517 125.402 490.315 122.136 493.401 117.418 Z" style="fill: rgb(255, 77, 209);" transform="matrix(0.9999999999999999, 0, 0, 0.9999999999999999, 0, -7.105427357601002e-15)"/>
</svg>